# xmcd
#
# Track frame offsets:
#	150
#	24562
#	47860
#	89800
#	127812
#	186462
#
# Disc length: 3189 seconds
#
# Revision: 4
# Processed by: cddbd v1.5.1PL0 Copyright (c) Steve Scherf et al.
# Submitted via: audiograbber 1.83.01
#
DISCID=510c7306
DTITLE=Mick Taylor - Shadowman Disc 2
DYEAR=1900
DGENRE=Rock
TTITLE0=Sweet Home Chicago
TTITLE1=Coastin' Home
TTITLE2=I Wonder Why
TTITLE3=You Gotta Move
TTITLE4=You Shook Me
TTITLE5=Can't You Hear Me Knockin'
EXTD=
EXTT0=
EXTT1=
EXTT2=
EXTT3=
EXTT4=
EXTT5=
PLAYORDER=
